<?xml version="1.0" encoding="utf-8"?>
<!-- Generator: Adobe Illustrator 27.6.1, SVG Export Plug-In . SVG Version: 6.00 Build 0)  -->
<svg version="1.1" xmlns="http://www.w3.org/2000/svg" xmlns:xlink="http://www.w3.org/1999/xlink" x="0px" y="0px"
	 viewBox="0 0 612 792" style="enable-background:new 0 0 612 792;" xml:space="preserve">
<style type="text/css">
	.st0{fill:url(#SVGID_1_);}
	.st1{fill:url(#SVGID_00000175281459148758507120000000989433258697574296_);}
	.st2{fill:url(#SVGID_00000067950405378432625330000016062384547661303432_);}
	.st3{fill:url(#SVGID_00000141435554050456663450000012702417737951825801_);}
	.st4{fill:url(#SVGID_00000101093206127770108300000015122551704875664256_);}
</style>
<g id="Layer_1">
</g>
<g id="Layer_2">
	<linearGradient id="SVGID_1_" gradientUnits="userSpaceOnUse" x1="267.0041" y1="200.2208" x2="363.2055" y2="200.2208">
		<stop  offset="0" style="stop-color:#FFFFFF"/>
		<stop  offset="0" style="stop-color:#A57C3D"/>
		<stop  offset="0.367" style="stop-color:#EEE393"/>
		<stop  offset="0.6486" style="stop-color:#E3D285"/>
		<stop  offset="0.9285" style="stop-color:#A98242"/>
	</linearGradient>
	<path class="st0" d="M362.75,203.22l-44.65,44.65c-0.61,0.61-1.59,0.61-2.2,0l-48.44-48.44c-0.61-0.61-0.61-1.59,0-2.2l44.65-44.65
		c0.61-0.61,1.59-0.61,2.2,0l48.44,48.44C363.36,201.63,363.36,202.61,362.75,203.22z"/>
	
		<linearGradient id="SVGID_00000108990920978165308610000015731109765698130837_" gradientUnits="userSpaceOnUse" x1="267.0041" y1="422.9529" x2="363.2055" y2="422.9529">
		<stop  offset="0" style="stop-color:#FFFFFF"/>
		<stop  offset="0" style="stop-color:#A57C3D"/>
		<stop  offset="0.367" style="stop-color:#EEE393"/>
		<stop  offset="0.6486" style="stop-color:#E3D285"/>
		<stop  offset="0.9285" style="stop-color:#A98242"/>
	</linearGradient>
	<path style="fill:url(#SVGID_00000108990920978165308610000015731109765698130837_);" d="M362.75,425.95L318.1,470.6
		c-0.61,0.61-1.59,0.61-2.2,0l-48.44-48.44c-0.61-0.61-0.61-1.59,0-2.2l44.65-44.65c0.61-0.61,1.59-0.61,2.2,0l48.44,48.44
		C363.36,424.36,363.36,425.34,362.75,425.95z"/>
	
		<linearGradient id="SVGID_00000036241816966304285820000001518763529141388457_" gradientUnits="userSpaceOnUse" x1="157.1172" y1="310.5366" x2="298.2785" y2="310.5366">
		<stop  offset="0" style="stop-color:#FFFFFF"/>
		<stop  offset="0" style="stop-color:#A57C3D"/>
		<stop  offset="0.367" style="stop-color:#EEE393"/>
		<stop  offset="0.6486" style="stop-color:#E3D285"/>
		<stop  offset="0.9285" style="stop-color:#A98242"/>
	</linearGradient>
	<path style="fill:url(#SVGID_00000036241816966304285820000001518763529141388457_);" d="M294.71,356.86
		c3.76,3.76,3.76,9.86,0,13.55l-33.26,33.32c-3.76,3.76-9.86,3.76-13.55,0l-46.5-46.5l-41.45-41.45c-3.76-3.7-3.76-9.79,0-13.55
		l84.88-84.88c3.76-3.76,9.86-3.76,13.55,0l37.14,37.08c3.7,3.76,3.7,9.79,0,13.55l-44.84,44.84L294.71,356.86z"/>
	
		<linearGradient id="SVGID_00000083808054953764436970000013088552289382776475_" gradientUnits="userSpaceOnUse" x1="172.629" y1="310.5366" x2="313.7903" y2="310.5366" gradientTransform="matrix(-1 0 0 1 644.1301 0)">
		<stop  offset="0" style="stop-color:#FFFFFF"/>
		<stop  offset="0" style="stop-color:#A57C3D"/>
		<stop  offset="0.367" style="stop-color:#EEE393"/>
		<stop  offset="0.6486" style="stop-color:#E3D285"/>
		<stop  offset="0.9285" style="stop-color:#A98242"/>
	</linearGradient>
	<path style="fill:url(#SVGID_00000083808054953764436970000013088552289382776475_);" d="M333.91,356.86
		c-3.76,3.76-3.76,9.86,0,13.55l33.26,33.32c3.76,3.76,9.86,3.76,13.55,0l46.5-46.5l41.45-41.45c3.76-3.7,3.76-9.79,0-13.55
		l-84.88-84.88c-3.76-3.76-9.86-3.76-13.55,0l-37.14,37.08c-3.7,3.76-3.7,9.79,0,13.55l44.84,44.84L333.91,356.86z"/>
	
		<linearGradient id="SVGID_00000061458389777149824300000007284500717582294702_" gradientUnits="userSpaceOnUse" x1="293.8083" y1="310.8376" x2="334.4136" y2="310.8376" gradientTransform="matrix(1 0 0 1 -0.0603 -0.3011)">
		<stop  offset="0" style="stop-color:#FFFFFF"/>
		<stop  offset="0" style="stop-color:#A57C3D"/>
		<stop  offset="0.367" style="stop-color:#EEE393"/>
		<stop  offset="0.6486" style="stop-color:#E3D285"/>
		<stop  offset="0.9285" style="stop-color:#A98242"/>
	</linearGradient>
	<path style="fill:url(#SVGID_00000061458389777149824300000007284500717582294702_);" d="M333.76,340.48
		c-2.35,6.78-10.8,9.24-18.89,5.39c-6.22-2.88-10.39-8.69-10.84-14.37v-0.04c-0.07-0.51-0.07-0.98-0.04-1.44
		c0-0.21,0-0.47,0.04-0.68c0.04,0.42,0.07,0.81,0.15,1.27c0,0.08,0.07,0.17,0.11,0.25v0.04l-0.04,0.08c0.6,3.22,2.09,6.32,4.47,8.78
		c5.59,5.81,13.82,5.85,18.37,0.13c1.97-2.5,2.91-5.55,2.94-8.78c-3.73-5.81-10.25-17.3-21.2-37.78
		c-1.79,6.74-4.21,15.56-7.49,26.88c-2.53-0.08-5.07-0.17-7.6-0.25c0.48-1.7,1.12-3.82,1.9-6.23c6.52-20.52,15.65-40.96,17.1-40.32
		c0.45,0.17,0.3,2.33-0.89,7.76c0.86,1.7,1.9,3.73,3.06,6.06c9.2,18.44,17.1,38.46,18.93,45.88c0,0.04,0,0.04,0.04,0.08
		c0.15,0.59,0.26,1.19,0.34,1.78c0.04,0.25,0.07,0.47,0.07,0.72C334.47,337.34,334.28,338.95,333.76,340.48z"/>
</g>
</svg>
